<svg width="12" height="12" viewBox="0 0 12 12" fill="none" xmlns="http://www.w3.org/2000/svg">
<path d="M11.25 3.36761H8.877C9.04725 3.25136 9.1935 3.13586 9.2955 3.03236C9.9 2.42411 9.9 1.43411 9.2955 0.825855C8.70825 0.234856 7.68375 0.234106 7.09575 0.825855C6.771 1.15211 5.90775 2.48036 6.027 3.36761H5.973C6.0915 2.48036 5.229 1.15211 4.90425 0.825855C4.31625 0.234106 3.29175 0.234856 2.7045 0.825855C2.1 1.43411 2.1 2.42411 2.70375 3.03236C2.8065 3.13586 2.95275 3.25136 3.123 3.36761H0.75C0.33675 3.36761 0 3.70436 0 4.11761V5.99261C0 6.1996 0.168 6.36761 0.375 6.36761H0.75V10.8676C0.75 11.2809 1.08675 11.6176 1.5 11.6176H10.5C10.9132 11.6176 11.25 11.2809 11.25 10.8676V6.36761H11.625C11.832 6.36761 12 6.1996 12 5.99261V4.11761C12 3.70436 11.6632 3.36761 11.25 3.36761ZM3.23625 1.35461C3.3885 1.20161 3.59025 1.11761 3.80475 1.11761C4.0185 1.11761 4.22025 1.20161 4.3725 1.35461C4.878 1.86311 5.3805 3.16211 5.20575 3.34286C5.20575 3.34286 5.17425 3.36761 5.067 3.36761C4.54875 3.36761 3.5595 2.82911 3.23625 2.50361C2.922 2.18711 2.922 1.67111 3.23625 1.35461ZM5.625 10.8676H1.5V6.36761H5.625V10.8676ZM5.625 5.61761H0.75V4.11761H5.067H5.625V5.61761ZM7.6275 1.35461C7.932 1.04936 8.46 1.05011 8.76375 1.35461C9.078 1.67111 9.078 2.18711 8.76375 2.50361C8.4405 2.82911 7.45125 3.36761 6.933 3.36761C6.82575 3.36761 6.79425 3.34361 6.7935 3.34286C6.6195 3.16211 7.122 1.86311 7.6275 1.35461ZM10.5 10.8676H6.375V6.36761H10.5V10.8676ZM11.25 5.61761H6.375V4.11761H6.933H11.25V5.61761Z" fill="#202223"/>
</svg>
