<svg width="121" height="116" viewBox="0 0 121 116" fill="none" xmlns="http://www.w3.org/2000/svg">
<g clip-path="url(#clip0_2186_76371)">
<path d="M76.8157 26.088H44.2115C43.4685 26.0889 42.7562 26.3791 42.2308 26.8951C41.7055 27.4111 41.4099 28.1107 41.409 28.8404V100.008L41.0353 100.12L33.037 102.526C32.6579 102.64 32.2485 102.601 31.8986 102.418C31.5487 102.235 31.2868 101.924 31.1706 101.552L7.37918 25.2274C7.2634 24.8551 7.30287 24.4529 7.4889 24.1092C7.67493 23.7654 7.99231 23.5083 8.37128 23.3943L20.6967 19.6877L56.4286 8.946L68.7539 5.23942C68.9415 5.18272 69.1386 5.16291 69.334 5.18112C69.5294 5.19932 69.7191 5.25519 69.8925 5.34552C70.0659 5.43585 70.2194 5.55887 70.3443 5.70754C70.4692 5.85621 70.563 6.02761 70.6204 6.21194L76.7018 25.721L76.8157 26.088Z" fill="#F2F2F2"/>
<path d="M83.9305 25.7213L76.6011 2.20835C76.4791 1.81658 76.2798 1.45225 76.0144 1.13618C75.749 0.820105 75.4229 0.558486 75.0545 0.366268C74.6861 0.174051 74.2828 0.0550005 73.8676 0.0159257C73.4524 -0.023149 73.0334 0.018517 72.6346 0.138539L55.3058 5.34793L19.5759 16.0915L2.24708 21.3027C1.44207 21.5455 0.76803 22.092 0.372904 22.8224C-0.0222225 23.5527 -0.106153 24.4072 0.139539 25.1983L25.1902 105.556C25.3897 106.194 25.7925 106.753 26.3392 107.151C26.886 107.548 27.548 107.763 28.2281 107.763C28.5429 107.763 28.8559 107.717 29.1566 107.626L41.0355 104.055L41.4092 103.941V103.558L41.0355 103.669L29.0464 107.275C28.3359 107.488 27.5684 107.415 26.9124 107.073C26.2564 106.731 25.7653 106.147 25.547 105.449L0.498336 25.09C0.390176 24.7445 0.352479 24.3814 0.387403 24.0215C0.422327 23.6617 0.529183 23.3121 0.701858 22.9929C0.874533 22.6736 1.10964 22.391 1.3937 22.1611C1.67776 21.9312 2.0052 21.7586 2.35727 21.6532L19.6861 16.442L55.4161 5.70024L72.7449 0.489015C73.0119 0.408975 73.2896 0.368164 73.5688 0.367909C74.168 0.36923 74.751 0.558955 75.2324 0.909293C75.7139 1.25963 76.0685 1.75217 76.2443 2.31478L83.5401 25.7213L83.6559 26.0882H84.0446L83.9305 25.7213Z" fill="#3F3D56"/>
<path d="M22.9209 23.4544C22.5608 23.4542 22.2102 23.3406 21.9207 23.1303C21.6311 22.9201 21.4178 22.6242 21.312 22.2862L18.9055 14.5663C18.8408 14.3589 18.8184 14.141 18.8395 13.9251C18.8605 13.7093 18.9247 13.4996 19.0283 13.308C19.1319 13.1165 19.2729 12.9469 19.4432 12.8089C19.6136 12.6709 19.81 12.5672 20.0211 12.5037L52.8924 2.62007C53.3188 2.49227 53.7794 2.53586 54.1732 2.74126C54.5669 2.94666 54.8616 3.2971 54.9925 3.71566L57.399 11.4357C57.529 11.8545 57.4846 12.3068 57.2755 12.6935C57.0664 13.0802 56.7096 13.3696 56.2835 13.4983L23.4121 23.3819C23.2529 23.4299 23.0874 23.4543 22.9209 23.4544Z" fill="#FF8833"/>
<path d="M35.5269 8.24893C37.5907 8.24893 39.2636 6.60587 39.2636 4.57906C39.2636 2.55224 37.5907 0.90918 35.5269 0.90918C33.4632 0.90918 31.7903 2.55224 31.7903 4.57906C31.7903 6.60587 33.4632 8.24893 35.5269 8.24893Z" fill="#FF8833"/>
<path d="M35.5271 6.90289C36.8339 6.90289 37.8932 5.86245 37.8932 4.57901C37.8932 3.29556 36.8339 2.25513 35.5271 2.25513C34.2203 2.25513 33.1609 3.29556 33.1609 4.57901C33.1609 5.86245 34.2203 6.90289 35.5271 6.90289Z" fill="white"/>
<path d="M112.592 106.825H49.4428C49.0218 106.825 48.6181 106.66 48.3204 106.368C48.0227 106.076 47.8552 105.679 47.8547 105.266V30.9506C47.8552 30.5371 48.0227 30.1406 48.3204 29.8482C48.6181 29.5558 49.0218 29.3913 49.4428 29.3909H112.592C113.014 29.3913 113.417 29.5558 113.715 29.8482C114.013 30.1406 114.18 30.5371 114.181 30.9506V105.266C114.18 105.679 114.013 106.076 113.715 106.368C113.417 106.66 113.013 106.825 112.592 106.825Z" fill="#E6E6E6"/>
<path d="M83.54 25.7209H44.2116C43.3696 25.7221 42.5624 26.0511 41.967 26.6359C41.3716 27.2206 41.0366 28.0134 41.0354 28.8403V103.669L41.4091 103.557V28.8403C41.41 28.1106 41.7055 27.4111 42.2309 26.8951C42.7563 26.3791 43.4686 26.0888 44.2116 26.0879H83.6558L83.54 25.7209ZM117.824 25.7209H44.2116C43.3696 25.7221 42.5624 26.0511 41.967 26.6359C41.3716 27.2206 41.0366 28.0134 41.0354 28.8403V112.881C41.0366 113.707 41.3716 114.5 41.967 115.085C42.5624 115.67 43.3696 115.999 44.2116 116H117.824C118.666 115.999 119.473 115.67 120.068 115.085C120.664 114.5 120.999 113.707 121 112.881V28.8403C120.999 28.0134 120.664 27.2206 120.068 26.6359C119.473 26.0511 118.666 25.7221 117.824 25.7209ZM120.626 112.881C120.625 113.61 120.33 114.31 119.805 114.826C119.279 115.342 118.567 115.632 117.824 115.633H44.2116C43.4686 115.632 42.7563 115.342 42.2309 114.826C41.7055 114.31 41.41 113.61 41.4091 112.881V28.8403C41.41 28.1106 41.7055 27.4111 42.2309 26.8951C42.7563 26.3791 43.4686 26.0888 44.2116 26.0879H117.824C118.567 26.0888 119.279 26.3791 119.805 26.8951C120.33 27.4111 120.625 28.1106 120.626 28.8403V112.881Z" fill="#3F3D56"/>
<path d="M98.2063 33.7948H63.829C63.3832 33.7943 62.9557 33.6202 62.6405 33.3106C62.3253 33.001 62.148 32.5812 62.1475 32.1434V24.0697C62.148 23.6318 62.3253 23.2121 62.6405 22.9025C62.9558 22.5929 63.3832 22.4187 63.829 22.4182H98.2063C98.6521 22.4187 99.0795 22.5929 99.3947 22.9025C99.71 23.2121 99.8873 23.6318 99.8878 24.0697V32.1434C99.8873 32.5812 99.71 33.001 99.3947 33.3106C99.0795 33.6202 98.6521 33.7943 98.2063 33.7948Z" fill="#FF8833"/>
<path d="M81.0177 22.9687C83.0814 22.9687 84.7543 21.3256 84.7543 19.2988C84.7543 17.272 83.0814 15.6289 81.0177 15.6289C78.954 15.6289 77.281 17.272 77.281 19.2988C77.281 21.3256 78.954 22.9687 81.0177 22.9687Z" fill="#FF8833"/>
<path d="M81.0177 21.5341C82.2747 21.5341 83.2937 20.5333 83.2937 19.2988C83.2937 18.0643 82.2747 17.0635 81.0177 17.0635C79.7607 17.0635 78.7417 18.0643 78.7417 19.2988C78.7417 20.5333 79.7607 21.5341 81.0177 21.5341Z" fill="white"/>
</g>
<defs>
<clipPath id="clip0_2186_76371">
<rect width="121" height="116" fill="white"/>
</clipPath>
</defs>
</svg>
